<svg xmlns="http://www.w3.org/2000/svg" xmlns:xlink="http://www.w3.org/1999/xlink" preserveAspectRatio="xMidYMid meet" version="1.0" viewBox="88.7 16.0 334.6 480.6" zoomAndPan="magnify" style="fill: rgb(38, 122, 55);" original_string_length="2023" width="46.2886898081726px" height="66.47200886291105px"><g data-name="Glyph" id="__id0_sbm04qwuj"><path d="M412.4,188c0-5.92,2-12.56,4.08-19.6,3.36-11,6.8-22.4,3.12-33.6-3.76-11.6-13.92-19.2-22.8-26-5.68-4.24-11-8.24-14.24-12.72-3.36-4.56-5.6-11-7.92-17.76-3.6-10.48-7.76-22.4-17.52-29.44s-21.68-7.36-33.28-7.6c-7.2-.16-14-.24-19.52-2.08-5.12-1.6-10.48-5.36-16.16-9.44C278.88,23.36,268.48,16,256,16s-22.88,7.36-32.16,13.76c-5.68,4-11.12,7.84-16.16,9.44-5.52,1.84-12.32,1.92-19.52,2.08-11.6.24-23.6.56-33.28,7.6S141,67.84,137.36,78.4c-2.32,6.72-4.56,13.12-7.92,17.68-3.2,4.48-8.56,8.48-14.24,12.72-8.88,6.8-19,14.4-22.8,26-3.68,11.2-.24,22.56,3.12,33.6,2.08,7,4.08,13.68,4.08,19.6s-2,12.56-4.08,19.6c-3.36,11-6.8,22.4-3.12,33.6,3.76,11.6,13.92,19.2,22.8,26,5.68,4.24,11,8.24,14.24,12.72,3.36,4.56,5.6,11,7.92,17.76,3.6,10.48,7.76,22.4,17.52,29.44s21.68,7.36,33.28,7.6c1.28,0,2.56,0,3.84.08V488a8,8,0,0,0,4.64,7.28,8.13,8.13,0,0,0,8.56-1.2L256,450.56l50.8,43.52a8.16,8.16,0,0,0,8.56,1.2A8,8,0,0,0,320,488V334.8c1.28-.08,2.56-.08,3.84-.08,11.6-.24,23.6-.56,33.28-7.6s13.92-19,17.52-29.52c2.32-6.72,4.56-13.12,7.92-17.68,3.2-4.48,8.56-8.48,14.24-12.72,8.88-6.8,19-14.4,22.8-26,3.68-11.2.24-22.56-3.12-33.6C414.4,200.56,412.4,193.92,412.4,188ZM272,443.2l-10.8-9.28a8,8,0,0,0-10.4,0L240,443.2V356.08a34.61,34.61,0,0,0,32,0ZM256,296A108,108,0,1,1,364,188,108.16,108.16,0,0,1,256,296Z" style="fill: inherit;"/><path d="M307.68,203.92a4,4,0,0,0-1.12,3.36l2.88,24c2.4,15.36-15.2,27.6-29,20.88L258,242a5,5,0,0,0-4,0l-22.48,10.16c-13.76,6.8-31.36-5.52-29-20.88l2.88-24.08a3.89,3.89,0,0,0-1.12-3.28l-16.8-17.84A19.89,19.89,0,0,1,183,166.16a20.5,20.5,0,0,1,15.68-13.84l24.24-4.72a4.62,4.62,0,0,0,3.12-2.16l12.08-21.12a20.72,20.72,0,0,1,35.84,0L286,145.44a4.62,4.62,0,0,0,3.12,2.16l24.24,4.72c15.36,2.48,22.24,22.8,11.12,33.76Z" style="fill: inherit;"/></g></svg>